<?xml version="1.0" encoding="UTF-8" standalone="no"?>
<svg width="148px" height="77px" viewBox="0 0 148 77" version="1.1" xmlns="http://www.w3.org/2000/svg" xmlns:xlink="http://www.w3.org/1999/xlink">
    <!-- Generator: Sketch 41.2 (35397) - http://www.bohemiancoding.com/sketch -->
    <title>kc logo</title>
    <desc>Created with Sketch.</desc>
    <defs></defs>
    <g id="Page-1" stroke="none" stroke-width="1" fill="none" fill-rule="evenodd">
        <g id="masthead-desktop-warning" transform="translate(-28.000000, -75.000000)" fill="#FFFFFF">
            <g id="default" transform="translate(0.000000, 42.000000)">
                <g id="logos" transform="translate(28.000000, 33.000000)">
                    <g id="kc-logo">
                        <polygon id="Fill-1" points="0 0 0 4.2504 6.92513953 4.2504 6.92513953 22.9908 12.0062016 22.9908 12.0062016 4.2504 18.9308721 4.2504 18.9308721 0"></polygon>
                        <polygon id="Fill-2" points="35.2080453 0 35.2080453 8.82233333 25.8563399 8.82233333 25.8563399 0 20.7752779 0 20.7752779 22.9908 25.8563399 22.9908 25.8563399 13.0732 35.2080453 13.0732 35.2080453 22.9908 40.2886384 22.9908 40.2886384 0"></polygon>
                        <polygon id="Fill-3" points="43.1362186 0 43.1362186 22.9908 60.6755907 22.9908 60.6755907 18.7404 48.2168116 18.7404 48.2168116 13.1054 59.4140016 13.1054 59.4140016 9.177 48.2168116 9.177 48.2168116 4.2504 60.416707 4.2504 60.416707 0"></polygon>
                        <polygon id="Fill-4" points="1.81232674 26.6 6.89291977 26.6 6.89291977 36.1312 15.9214895 26.6 22.2641407 26.6 13.2355709 35.6804 23.1378733 49.5908 16.7628616 49.5908 9.80536163 39.2546 6.89291977 42.1848 6.89291977 49.5908 1.81232674 49.5908"></polygon>
                        <polygon id="Fill-5" points="23.5581841 26.6 40.8386725 26.6 40.8386725 30.8504 28.6387771 30.8504 28.6387771 35.777 39.8354981 35.777 39.8354981 39.7054 28.6387771 39.7054 28.6387771 45.3404 41.0975562 45.3404 41.0975562 49.5908 23.5581841 49.5908"></polygon>
                        <polygon id="Fill-6" points="42.9093671 26.6 47.9575996 26.6 57.6010182 42.0238 57.6657391 42.0238 57.6657391 26.6 62.4227275 26.6 62.4227275 49.5908 57.3421345 49.5908 47.7310764 34.1992 47.6663554 34.1992 47.6663554 49.5908 42.9093671 49.5908"></polygon>
                        <polygon id="Fill-7" points="65.2700733 26.6 70.3187748 26.6 79.9617244 42.0238 80.0264453 42.0238 80.0264453 26.6 84.7834337 26.6 84.7834337 49.5908 79.7033097 49.5908 70.0917826 34.1992 70.0275306 34.1992 70.0275306 49.5908 65.2700733 49.5908"></polygon>
                        <polygon id="Fill-8" points="87.6312484 26.6 104.911737 26.6 104.911737 30.8504 92.7113725 30.8504 92.7113725 35.777 103.908562 35.777 103.908562 39.7054 92.7113725 39.7054 92.7113725 45.3404 105.170621 45.3404 105.170621 49.5908 87.6312484 49.5908"></polygon>
                        <path d="M112.062837,45.34026 L116.593302,45.34026 C119.538104,45.34026 122.353934,43.5375267 122.353934,38.44946 C122.353934,33.81266 120.735441,30.85026 115.687678,30.85026 L112.062837,30.85026 L112.062837,45.34026 Z M106.982713,26.59986 L116.949736,26.59986 C122.936891,26.59986 127.434058,30.33506 127.434058,37.96646 C127.434058,44.63186 124.003848,49.59066 116.949736,49.59066 L106.982713,49.59066 L106.982713,26.59986 Z" id="Fill-9"></path>
                        <polygon id="Fill-11" points="133.712504 40.6392 125.202171 26.6 130.929504 26.6 136.334171 35.6804 141.705539 26.6 147.369089 26.6 138.793566 40.768 138.793566 49.5908 133.712504 49.5908"></polygon>
                        <path d="M17.2158143,60.928 C16.8922097,58.6422667 14.6916981,56.903 12.1675818,56.903 C7.6047562,56.903 5.88965155,60.767 5.88965155,64.792 C5.88965155,68.6238 7.6047562,72.4878 12.1675818,72.4878 C15.2741864,72.4878 17.0216516,70.3626 17.4099771,67.3358 L22.3287678,67.3358 C21.8110004,73.0674 17.8306632,76.7382 12.1675818,76.7382 C5.01591899,76.7382 0.809058527,71.4252 0.809058527,64.792 C0.809058527,57.9656 5.01591899,52.6530667 12.1675818,52.6530667 C17.2481748,52.6530667 21.5197562,55.615 22.134605,60.928 L17.2158143,60.928 Z" id="Fill-13"></path>
                        <polygon id="Fill-15" points="23.9790578 53.1997667 41.2595461 53.1997667 41.2595461 57.4501667 29.0596508 57.4501667 29.0596508 62.3767667 40.2563717 62.3767667 40.2563717 66.3056333 29.0596508 66.3056333 29.0596508 71.9401667 41.5184298 71.9401667 41.5184298 76.1910333 23.9790578 76.1910333"></polygon>
                        <polygon id="Fill-17" points="43.3305221 53.1997667 48.3787547 53.1997667 58.0221733 68.6240333 58.0868942 68.6240333 58.0868942 53.1997667 62.8438826 53.1997667 62.8438826 76.1910333 57.7628205 76.1910333 48.1522314 60.7989667 48.0875105 60.7989667 48.0875105 76.1910333 43.3305221 76.1910333"></polygon>
                        <polygon id="Fill-19" points="71.7430105 57.4503533 64.8178709 57.4503533 64.8178709 53.1999533 83.748274 53.1999533 83.748274 57.4503533 76.8236035 57.4503533 76.8236035 76.1907533 71.7430105 76.1907533"></polygon>
                        <polygon id="Fill-21" points="85.5931488 53.1997667 102.873637 53.1997667 102.873637 57.4501667 90.6732729 57.4501667 90.6732729 62.3767667 101.870463 62.3767667 101.870463 66.3056333 90.6732729 66.3056333 90.6732729 71.9401667 103.132521 71.9401667 103.132521 76.1910333 85.5931488 76.1910333"></polygon>
                        <path d="M110.024737,63.6004133 L115.591206,63.6004133 C117.856439,63.6004133 119.085667,62.63488 119.085667,60.3160133 C119.085667,58.0942133 117.856439,57.1282133 115.591206,57.1282133 L110.024737,57.1282133 L110.024737,63.6004133 Z M104.944613,53.1998133 L117.402923,53.1998133 C121.545063,53.1998133 124.166729,56.06608 124.166729,59.54368 C124.166729,62.24848 123.066943,64.2766133 120.509997,65.3070133 L120.509997,65.37188 C123.001753,66.01588 123.713683,68.43088 123.875485,70.7488133 C123.972567,72.19828 123.940675,74.90308 124.846768,76.19108 L119.765706,76.19108 C119.150857,74.7416133 119.216047,72.5198133 118.956695,70.68488 C118.60026,68.26988 117.662276,67.20728 115.105799,67.20728 L110.024737,67.20728 L110.024737,76.19108 L104.944613,76.19108 L104.944613,53.1998133 Z" id="Fill-23"></path>
                    </g>
                </g>
            </g>
        </g>
    </g>
</svg>